<svg width="708" height="708" viewBox="0 0 708 708" fill="none" xmlns="http://www.w3.org/2000/svg">
<path d="M641 310.708V191.801H561.931V183.308H567.436V115.935L552.923 120.931L538.911 118.933L502.379 103.944L495.874 95.4511L482.862 100.447L476.357 106.942H467.849L461.344 100.447H435.321V78.964L446.831 67.473V33H360.256V61.9773L373.267 78.964V100.447H353.75L349.246 111.439V120.931L332.732 126.926V130.923L314.216 140.416V156.329H278.185L267.175 164.323H260.169L248.158 156.329H211.627L205.121 150.833L196.614 156.329L175.595 127.352L160.082 136.345V159.327H97.5274L83.0148 179.811V228.773H89.02L114.542 248.757V273.238L89.02 290.724H66V437.609H124.05V432.613H165.587V448.101H189.107V437.609H241.152V452.597H265.173V510.552H312.715V563.511H405.795V568.007H315.217V592.488H385.778V674.924H455.839V592.488H484.364V568.007H442.327V563.511H620.983V465.587H641V317.203H600.965V310.708H641ZM465 184.617H538.5V190.113H470V231.081H465V184.617ZM533.046 407.942V442.915H484.004V407.942H533.046ZM296 211.096H319.5L296 230.423V211.096ZM309.5 290.035V304.423H234.5V290.035H309.5ZM157 206.923H274.5V243.071H171V255.423H157V206.923ZM383 484.882H336.5V417.923H315V383.961H166.5V333.001H263.5V352.923H334V410.94H354V433.922H383V484.882ZM494.513 467.923H461.344V396.923H399.5V381.463H385V333.001H463.5V265.054H509.5V301.525H526.5V333.001H463.486V398.949V464.898H494.513V467.923ZM588 467.923H530.95V464.898H588V467.923Z" fill="#202B43"/>
<mask id="mask0" mask-type="alpha" maskUnits="userSpaceOnUse" x="66" y="33" width="575" height="642">
<path d="M641 310.708V191.801H561.931V183.308H567.436V115.935L552.923 120.931L538.911 118.933L502.379 103.944L495.874 95.4511L482.862 100.447L476.357 106.942H467.849L461.344 100.447H435.321V78.964L446.831 67.473V33H360.256V61.9773L373.267 78.964V100.447H353.75L349.246 111.439V120.931L332.732 126.926V130.923L314.216 140.416V156.329H278.185L267.175 164.323H260.169L248.158 156.329H211.627L205.121 150.833L196.614 156.329L175.595 127.352L160.082 136.345V159.327H97.5274L83.0148 179.811V228.773H89.02L114.542 248.757V273.238L89.02 290.724H66V437.609H124.05V432.613H165.587V448.101H189.107V437.609H241.152V452.597H265.173V510.552H312.715V563.511H405.795V568.007H315.217V592.488H385.778V674.924H455.839V592.488H484.364V568.007H442.327V563.511H620.983V465.587H641V317.203H600.965V310.708H641ZM465 184.617H538.5V190.113H470V231.081H465V184.617ZM533.046 407.942V442.915H484.004V407.942H533.046ZM296 211.096H319.5L296 230.423V211.096ZM309.5 290.035V304.423H234.5V290.035H309.5ZM157 206.923H274.5V243.071H171V255.423H157V206.923ZM383 484.882H336.5V417.923H315V383.961H166.5V333.001H263.5V352.923H334V410.94H354V433.922H383V484.882ZM494.513 467.923H461.344V396.923H399.5V381.463H385V333.001H463.5V265.054H509.5V301.525H526.5V333.001H463.486V398.949V464.898H494.513V467.923ZM588 467.923H530.95V464.898H588V467.923Z" fill="#202B43"/>
</mask>
<g mask="url(#mask0)">
<rect x="107.535" y="347.923" width="48.6055" height="21" transform="rotate(47.7114 107.535 347.923)" fill="#273552"/>
<rect x="532" y="354.923" width="59" height="18" fill="#273552"/>
<rect x="166" y="320.923" width="11" height="11" fill="#273552"/>
<rect x="233" y="277.923" width="11" height="11" fill="#273552"/>
<rect x="300" y="260.923" width="11" height="11" fill="#273552"/>
<rect x="465" y="334.923" width="11" height="19" fill="#273552"/>
<rect x="476" y="334.923" width="11" height="12" fill="#273552"/>
<rect x="501" y="334.923" width="11" height="12" fill="#273552"/>
<rect x="532" y="218.923" width="59" height="21" fill="#273552"/>
<rect x="621" y="249.923" width="18" height="10" fill="#273552"/>
<rect x="413" y="243.923" width="18" height="50" fill="#273552"/>
<rect x="500" y="235.923" width="11" height="28" fill="#273552"/>
<rect x="383" y="215.923" width="18" height="28" fill="#273552"/>
<rect x="225" y="384.923" width="11" height="9" fill="#273552"/>
<rect x="199" y="418.923" width="11" height="9" fill="#273552"/>
<rect x="358" y="539.923" width="48" height="23" fill="#273552"/>
<rect x="442" y="539.923" width="48" height="23" fill="#273552"/>
<rect x="372" y="232.923" width="51" height="11" fill="#273552"/>
<path d="M639.5 259.923H600.5V283.423H535V259.923" stroke="#182338"/>
<path d="M334 394.423H353.5V258.423H372V209.923H296V196.423M335 352.923V258.423H320M308 258.423H191V284.423H202.5V304.423H144.5V284.423H177.5V258.423M313.5 493.923V441.923H287.5M274.5 441.923H266V452.423M266 469.923H274.5V509.923M406 563.423V496.923M442 563.423V496.923M600 317.923V335.423H622V391.923M639.5 391.923H588V406.923H533.5M533.5 443.923H548M603.5 443.923H548M548 443.923V425.423H639.5M383 484.5H400V434H383V484.5ZM443 397V448.923H461V397H443Z" stroke="#182338"/>
<path d="M470.5 202.423H639.5M566 163.923H484.5M374 100.923V141.923M434.5 100.923V141.923M314.5 157.423V176.923H321M347.5 193.923H314.5V187.923M295.5 187.923V173.923M295.5 157.423V161.673M295.5 165.923V161.673M295.5 161.673H275V205.923H296M196 157.423V183.423H238V157.423M114.5 160.423V173.923M159.5 160.423V178.923M265 384.923V401.923M265 418.923H314M265 418.923V401.923M265 418.923H165.5V401.923H265" stroke="#182338"/>
</g>
</svg>
